<?xml version="1.0" encoding="UTF-8"?>
<svg id="e-commerce" xmlns="http://www.w3.org/2000/svg" version="1.1" viewBox="0 0 102.1 102.1">
  <defs>
    <style>
      .cls-1 {
        fill: #d9083c;
        stroke-width: 0px;
      }
    </style>
  </defs>
  <path class="cls-1" d="M45.5,59.7c0,.6,0,1.3.5,1.8.5.5,1.2.6,1.8.6,7.7-.1,14.3-2.9,19.7-8.3,10-9.9,19.3-19.2,28.2-28.2.9-.9,1.6-2.2,2.3-3.5.2-.4.3-1,.5-1.5,0-.2.1-.5.2-.7v-2.1c0-.1,0-.2-.1-.4-.8-4.2-3-6.7-6.8-7.9-1-.3-2-.5-3-.5-2.6,0-4.9,1.1-7.1,3.3-9.2,9.2-18.4,18.4-27.6,27.5-5.6,5.6-8.4,12.1-8.6,19.9h0ZM84.7,14.8c2.4-2.4,6-2.5,8.4-.2,1.1,1.1,1.7,2.5,1.7,4,0,1.6-.7,3.1-1.9,4.4-9.4,9.4-18.8,18.8-28.3,28.2-3.4,3.4-7.6,5.6-12.6,6.6l-3.2.7,1-3.1c.2-.5.3-1,.5-1.5.3-1,.6-2,1-3,1.2-2.9,2.9-5.5,5.2-7.8,9.4-9.4,18.8-18.8,28.2-28.1h0Z"/>
  <path class="cls-1" d="M83,70.2c.2-2.6.2-5.3.2-7.9v-3c0-1.3-.8-2.2-2-2.2h0c-.5,0-1,.2-1.3.5-.4.4-.7,1-.7,1.7v3c0,1.8,0,3.5,0,5.3,0,1.2-.1,2.2-.3,3.1-1.5,6.4-6.8,10.5-13.4,10.5-12.1,0-26.1,0-39.9,0h0c-1.2,0-2,.3-2.9,1.1-1,1-2.1,1.9-3.1,2.8-.8.7-1.5,1.3-2.3,2-2.6,2.3-5,2-6.6,1.3-1.6-.7-3.4-2.3-3.4-5.7,0-5.6,0-11.2,0-16.8v-28.7c0-.6,0-1.3.1-2.1,1.1-7,6.6-11.8,13.7-11.8h32c.7,0,1.3-.2,1.7-.6.3-.4.5-.8.5-1.3,0-1.1-.9-2-2.1-2-2.7,0-5.4,0-8.1,0-3.6,0-7.3,0-11,0s-9.1,0-13.6,0c-9.4.1-17.1,7.9-17.1,17.2,0,17.8,0,32.6,0,46.5,0,4.1,1.9,7,5.6,8.7,3.6,1.7,7,1.2,10.2-1.3,1.5-1.1,2.9-2.4,4.2-3.7l.8-.7c.9-.8,1.8-1.2,3-1.2h0c12.6,0,25.3,0,37.9,0,1.2,0,2.4,0,3.4-.2,7.5-1,13.9-7.5,14.5-14.8h0Z"/>
  <path class="cls-1" d="M21,42.7c-.6,0-1.2.2-1.6.6-.4.4-.5.8-.5,1.4,0,1.1.9,1.9,2.1,1.9,1.3,0,2.6,0,3.9,0h7.4c1.3,0,2.1-.8,2.2-1.9,0-.5-.2-1-.5-1.4-.4-.4-1-.6-1.6-.6-3.7,0-7.5,0-11.3,0h0Z"/>
  <path class="cls-1" d="M18.8,60.2c0,1.1.9,1.9,2.1,1.9,1.3,0,2.6,0,3.9,0h7.5c1.2,0,2.1-.8,2.1-1.9,0-.5-.2-1-.5-1.4-.4-.4-.9-.6-1.5-.6-1.9,0-3.8,0-5.8,0s-3.9,0-5.8,0c-.6,0-1.1.2-1.5.6-.4.4-.5.9-.5,1.4h0Z"/>
</svg>