<?xml version="1.0" encoding="UTF-8"?>
<svg id="e-commerce" xmlns="http://www.w3.org/2000/svg" version="1.1" viewBox="0 0 102.1 102.1">
  <defs>
    <style>
      .cls-1 {
        fill: #d9083c;
        stroke-width: 0px;
      }
    </style>
  </defs>
  <path class="cls-1" d="M95.4,22.8c-.4-.7-1.4-1.1-2.4-1.1-16.6,0-33.4,0-49.7,0h-18.4l-.7-.8c-.1-.1-.5-.5-.6-1.1l-.6-4c-.4-2.5-.8-5.1-1.2-7.6-.2-1.5-.8-2-2.4-2-3.6,0-7.2,0-10.8,0s-2.4.1-2.4,1.9,1.2,1.9,2.4,1.9h9.6l7.2,46.3-1.9.3c-5,.8-7.9,3.2-8.9,7.5-1.1,4.4.5,8,4.7,10.8l1.5,1-.9,1.6c-1.6,2.7-2.1,5.3-1.7,8,.4,2.9,1.7,5.2,3.9,7.2,3.7,3.2,9,3.8,13.3,1.4,2.2-1.2,3.8-2.9,4.8-5.2,1.5-3.2,1.5-6.5,0-10.1l-1.2-2.7h23.9l-1,2.6c-2.3,6.3-1,11.1,4,14.7,4.1,2.9,8.4,3,12.6.4,5.4-3.4,7-8.4,4.7-14.8l-.7-1.9,2-.6c.4-.1.8-.2,1.2-.3.7-.2,1.3-.3,1.7-.5.7-.4.9-1.3.7-1.9-.3-.9-1-1.4-1.9-1.4-4.3,0-8.7,0-13,0h-13.7c-11.5,0-23.4,0-35.1,0-1.4,0-3-.5-4.2-1.3-2-1.3-2.7-4-1.8-6.4.9-2.4,3-3.8,5.6-3.8,5,0,10,0,15,0h23.6c.7,0,1.7-.2,2.1-1.2.2-.6.2-1.2-.2-1.7-.4-.6-1.1-.9-2-.9H29.3l-4.8-31h66.3l-2.7,6c-.3.7-.4,1.4-.2,2,.2.4.5.8,1,1,1.6.7,2.5-.9,2.7-1.3.4-.9.8-1.9,1.2-2.8.8-1.8,1.5-3.6,2.4-5.4.3-.7.6-1.6.1-2.4h0ZM66.9,78.6c1.5-1.5,3.4-2.3,5.5-2.3h0c2,0,3.9.8,5.4,2.2,1.5,1.5,2.3,3.4,2.3,5.4,0,2.1-.8,4.1-2.3,5.6-1.5,1.5-3.4,2.3-5.5,2.3h0c-4.2,0-7.7-3.4-7.8-7.7,0-2.1.8-4.1,2.2-5.5h0ZM24,78.6c1.5-1.5,3.4-2.3,5.5-2.3,2.1,0,4,.8,5.5,2.2,1.5,1.5,2.3,3.4,2.3,5.4,0,2.1-.8,4.1-2.3,5.6-1.5,1.5-3.4,2.3-5.5,2.3h0c-4.2,0-7.7-3.4-7.8-7.7,0-2.1.8-4,2.2-5.5Z"/>
  <path class="cls-1" d="M93.9,45c-2.9-1-5.8-1.9-8.8-2.9-4.5-1.5-8.9-3-13.4-4.5-.6-.2-1-.3-1.4-.3-.6,0-1,.3-1.3.5-.5.5-.8,1-.3,2.6,1.7,5,3.4,10,5,15l2.3,7c.4,1.2,1,1.9,1.7,2.1.7.2,1.5-.2,2.4-1.1,1-1,2.1-2.1,3.1-3.1l2.3-2.3,1.3.7c.2,0,.4.2.7.5l1.8,1.8c.9.9,1.8,1.8,2.6,2.6.4.4,1.8,1.6,3.1.3,1.3-1.3,0-2.7-.3-3.1-1-1-2.1-2.1-3.1-3.2l-2.9-2.9,5.9-5.9c.8-.8,1.2-1.7,1-2.3-.2-.7-.9-1.2-1.9-1.6h0ZM79.1,58.8l-5.5-16.4,16.5,5.5s-11,11-11,11Z"/>
</svg>