<?xml version="1.0" encoding="UTF-8"?>
<svg id="e-commerce" xmlns="http://www.w3.org/2000/svg" version="1.1" viewBox="0 0 102.1 102.1">
  <defs>
    <style>
      .cls-1 {
        fill: #d9083c;
        stroke-width: 0px;
      }
    </style>
  </defs>
  <path class="cls-1" d="M52,93.2c1.9-3.6,3.7-7.5,5.5-11.6,2-4.5-.2-9.9-4.8-12-1.5-.7-3.2-.8-5.2-.8h-5.6l.6-2.6c.2-.9.4-1.8.6-2.6.6-2.8,0-5.7-1.9-7.7-1.8-2-4.5-3.1-7.3-2.8-.9,0-1.4.5-1.8,1.3l-1.6,3.4c-.7,1.6-1.5,3.1-2.2,4.7-1.1,2.4-2.8,4.3-4.9,5.8l-1.6,1.1c-1.5,1-3,2-4.5,3-.5.3-1.2.6-1.9.6h-.8c-3.1,0-6.3,0-9.5,0-1.5,0-2.3.4-2.8,1.5v23.7c.3.7.8,1.2,1.5,1.5h38.7c.2,0,.4-.1.6-.2,4.1-.7,7.1-2.8,8.9-6.2h0ZM15.1,95.7H6.3v-18.9h8.8v18.9h0ZM41.4,95.8c-2.9,0-5.9,0-8.9,0h-12c-.1,0-.2,0-.4,0h-1.2v-10.1c0-2.8,0-5.6,0-8.3,0-.7.1-1.6,1.2-2.3.9-.6,1.8-1.2,2.7-1.8.7-.5,1.5-1,2.2-1.5,3.1-2,5.4-4.7,6.9-8.1.6-1.4,1.3-2.8,2-4.2.3-.6.6-1.2.9-1.9l.3-.7h.7c1.1.2,2.1.9,2.8,1.9.8,1.2,1.1,2.6.8,3.8-.4,1.8-.8,3.5-1.2,5.3l-.5,2.1c-.2.8,0,1.5.3,1.9.5.6,1.2.7,1.8.7,1.6,0,3.3,0,4.9,0h3.7c2.3,0,4.2.9,5.2,2.5s1,3.7,0,5.8l-.6,1.2c-1.4,2.9-2.7,5.8-4.1,8.7-1.5,3.2-4.1,4.9-7.6,4.9h0Z"/>
  <path class="cls-1" d="M28.3,5.7l-.6.4-1.2-.8c-4-2.8-8.8-3.6-13.4-2.3-4.5,1.4-8.1,4.7-9.8,9.2-.3.8-.5,1.6-.7,2.5,0,.4-.2.7-.3,1.1v3c0,.1.1.3.2.6.5,3.3,2.1,6.1,4.7,8.4,6.3,5.4,12.7,10.8,19,16.2,1,.9,1.8.9,2.8,0l3.3-2.8c5.3-4.5,10.7-9.1,16-13.7,2.6-2.3,4.1-5.2,4.4-8.8.4-4.7-1.4-9.2-4.9-12.4-3.6-3.2-8.3-4.6-12.9-3.7-2.5.5-4.7,1.5-6.7,3h0ZM41.1,6.8c4.3,1.3,7,4.4,7.8,9,.6,3.6-.5,6.7-3.4,9.2-2.3,2-4.7,4-7,6l-2.7,2.3c-2.3,1.9-4.5,3.8-6.8,5.8-.2.1-.3.3-.5.4l-.9.7-12.2-10.4c-1.8-1.5-3.5-3-5.2-4.5-3.9-3.3-5-7.7-3-12.2,2-4.6,6.7-7.4,11.5-6.8,2.9.3,5.4,1.6,7.4,3.7.5.6,1.1.9,1.6.9h0c.5,0,1.1-.3,1.7-.9,3.3-3.4,7.4-4.6,11.8-3.2h0Z"/>
  <path class="cls-1" d="M77.2,27.6h0c-5.9,0-11.6,2.3-15.8,6.5-4.3,4.2-6.6,9.9-6.6,15.9s2.3,11.6,6.6,15.9,9.9,6.6,15.9,6.6h0c6,0,11.6-2.3,15.9-6.6,4.2-4.2,6.6-9.9,6.6-15.9,0-12.3-10.1-22.4-22.4-22.5h0ZM77.2,68.7h0c-10.3,0-18.6-8.3-18.6-18.6,0-5,1.9-9.7,5.5-13.2,3.5-3.5,8.2-5.5,13.2-5.5h0c5,0,9.7,2,13.2,5.5s5.5,8.2,5.5,13.2c0,10.2-8.4,18.6-18.7,18.6Z"/>
  <path class="cls-1" d="M68.7,50.4c0,4.5,3.9,8.2,8.5,8.2s4.4-.9,6.1-2.5c1.6-1.6,2.4-3.7,2.4-5.8s-.5-1.7-1.3-1.9c-.6-.2-1.1-.1-1.6.2-.5.3-.9,1-.9,1.7-.2,2.7-2.1,4.5-4.6,4.6h0c-2.6,0-4.5-1.9-4.7-4.6,0-1.2-.9-2-1.9-2h-.1c-1.1,0-1.8.9-1.8,2.2h0Z"/>
</svg>