<?xml version="1.0" encoding="UTF-8"?>
<svg id="e-commerce" xmlns="http://www.w3.org/2000/svg" version="1.1" viewBox="0 0 102.1 102.1">
  <defs>
    <style>
      .cls-1 {
        fill: #d9083c;
        stroke-width: 0px;
      }
    </style>
  </defs>
  <path class="cls-1" d="M63.9,95.7c.7.7,1.4,1,2,.9.6,0,1.2-.6,1.6-1.5l2.6-5.5c1.9-4,3.8-8,5.7-12,.4-.8,1.1-1.5,1.8-1.9,3.5-1.7,7-3.4,10.6-5.1,2.3-1.1,4.7-2.2,7.1-3.4.8-.4,1.2-.9,1.3-1.5,0-.6-.2-1.3-.8-1.8-.5-.5-.8-1.4-.6-2.2.8-3.5,1.3-7.1,1.3-10.6,0-5.7-.9-11-2.8-16-4.3-11.6-12.9-20.8-24.1-25.9-11.3-5-23.8-5.3-35.4-.7C14.2,16.6,2.2,38.1,6.2,58.8c3.6,18.6,14.8,30.8,33.4,36.3,6.9,2,14.3,2.1,22.2.2.2,0,.4,0,.6,0,.5,0,1.1.2,1.5.6ZM85.6,67.7c-.8.4-1.6.8-2.3,1.1l-1.2.6c-2.6,1.2-5.1,2.4-7.7,3.6-.7.3-1.1.8-1.5,1.5-1.3,2.9-2.7,5.8-4.1,8.7l-1.2,2.6c0,.2-.2.4-.3.7l-1.5,3-11.8-35.4,35.5,11.8-3.9,1.9h0ZM49.2,51.7c.8,2.4,1.6,4.8,2.4,7.2l1.8,5.6h-20.1v-1c-1.2-8.2-1.2-16.6-.2-25.1v-1.1h35.6l.9,17.8-2.6-.8c-.6-.2-1.1-.3-1.6-.5-4.5-1.5-9-3-13.5-4.5-.9-.3-1.5-.3-2.1.1-1,.7-.8,1.8-.7,2.3ZM90.8,38.8c2.2,7.4,2.4,14.7.6,22.3l-.3,1.3-8.3-2.8c-2.6-.9-5.3-1.8-7.9-2.7-.6-.2-1.5-1-1.5-1.9,0-1.2,0-2.4,0-3.7s0-3,0-4.5c0-1.8-.2-3.7-.4-5.6,0-.9-.1-1.7-.2-2.6v-1.3c0,0,7.2,0,7.2,0h8.8c.4,0,1.7,0,2.1,1.5h0ZM69,13.4c8.2,4.1,14.5,10.2,18.9,18.2l.9,1.8h-16.7l-5.5-21.2,2.3,1.2h0ZM38.5,16.4c.5-1.4.9-2.8,1.4-4.2.3-1.1,1-1.7,2.1-1.9,6-1.4,12.1-1.3,18.2,0,.6.1,1.4.7,1.7,1.4,2.4,6.1,4.3,12.7,5.7,19.5,0,.2,0,.4,0,.7v1.5c0,0-33.8,0-33.8,0l.3-1.5c.2-.8.4-1.7.6-2.5.4-1.8.8-3.7,1.3-5.5.8-2.5,1.6-5.1,2.4-7.6h0ZM14.1,31.7c4.3-8.1,10.7-14.2,18.8-18.2l2.3-1.1-5.5,21.1H13.1l.9-1.8h0ZM11.1,63c-2.4-8-2.4-16.1,0-24,.1-.5.5-1.7,2-1.7h0c3.6,0,7.1,0,10.7,0h4c.2,0,.4,0,.5,0l1.1.3v1c-1,8.4-1,16.5,0,24.5v1.2c.1,0-1.5.1-1.5.1-.2,0-.4,0-.6,0h-4.1c-3.3,0-6.5,0-9.8,0h0c-.5,0-1.7,0-2.2-1.6h0ZM32.9,88.5c-8.1-4-14.4-10.1-18.8-18.2l-1-1.8h16.6l5.5,21.1-2.3-1.2h0ZM61,91.4c-3.4.8-6.5,1.3-9.5,1.3s-1.5,0-2.3,0c-2-.2-4.1-.5-6-.8l-1.4-.2c-.8-.1-1.5-.7-1.8-1.4-2.5-6.4-4.5-13.1-5.7-19.9,0-.2,0-.4,0-.5v-1c0,0,1.3-.2,1.3-.2.2,0,.4,0,.7,0h16.9c.5,0,1.7,0,2.2,1.4,1.6,5,3.3,10,4.9,14.9l1.5,4.6c0,.1,0,.3,0,.4l.2,1.3s-1.1.3-1.1.3Z"/>
</svg>